<mxfile host="drawio-plugin" modified="2021-11-05T12:43:40.422Z" agent="5.0 (Macintosh; Intel Mac OS X 11_2_3) AppleWebKit/537.36 (KHTML, like Gecko) Chrome/89.0.4389.114 Safari/537.36" etag="Nj6aglbP7UbTJOA-SgCh" version="14.7.4" type="embed" pages="3"><diagram id="23iRSUPoRavnBvh4doch" name="结构"><mxGraphModel dx="1044" dy="813" grid="1" gridSize="10" guides="1" tooltips="1" connect="1" arrows="1" fold="1" page="1" pageScale="1" pageWidth="827" pageHeight="1169" math="0" shadow="0"><root><mxCell id="0"/><mxCell id="1" parent="0"/></root></mxGraphModel></diagram><diagram id="c8J47O6kLD8-_YgJL6j1" name="插入"><mxGraphModel dx="1044" dy="813" grid="1" gridSize="10" guides="1" tooltips="1" connect="1" arrows="1" fold="1" page="1" pageScale="1" pageWidth="850" pageHeight="1100" math="0" shadow="0"><root><mxCell id="YHFjWXX2y1QULl5lY9Qr-0"/><mxCell id="YHFjWXX2y1QULl5lY9Qr-1" parent="YHFjWXX2y1QULl5lY9Qr-0"/></root></mxGraphModel></diagram><diagram id="dWQKLl2VVE3VqwH9f2nB" name="Page-3"><mxGraphModel dx="1044" dy="813" grid="1" gridSize="10" guides="1" tooltips="1" connect="1" arrows="1" fold="1" page="1" pageScale="1" pageWidth="850" pageHeight="1100" math="0" shadow="0"><root><mxCell id="eht0lF5DQb8y1AH-Z0UF-0"/><mxCell id="eht0lF5DQb8y1AH-Z0UF-1" parent="eht0lF5DQb8y1AH-Z0UF-0"/></root></mxGraphModel></diagram></mxfile>